<svg width="28" height="30" viewBox="0 0 28 30" fill="none" xmlns="http://www.w3.org/2000/svg">
<path d="M8.12 29.04C6.52 29.04 5.22667 28.9067 4.24 28.64C3.28 28.3733 2.53333 28.0533 2 27.68C1.46667 27.3333 1.05333 27.0533 0.76 26.84C0.44 26.5467 0.28 26.36 0.28 26.28C0.28 26.2533 0.306667 26.24 0.36 26.24C0.466667 26.24 0.586667 26.2667 0.72 26.32C0.88 26.3467 1 26.3867 1.08 26.44C2.01333 26.76 2.81333 26.9333 3.48 26.96C4.17333 26.96 4.88 26.96 5.6 26.96C6.48 26.96 7.54667 26.88 8.8 26.72C10.0533 26.56 11.36 26.2933 12.72 25.92C14.1067 25.5467 15.3867 25.0267 16.56 24.36C18.1333 23.48 19.3333 22.44 20.16 21.24C21.0133 20.04 21.44 18.8933 21.44 17.8C21.44 16.6267 20.92 15.6267 19.88 14.8C18.84 13.9733 17.2 13.56 14.96 13.56C14.7467 13.56 14.52 13.56 14.28 13.56C14.04 13.56 13.7867 13.5733 13.52 13.6C12.4533 13.68 11.3067 13.88 10.08 14.2C8.88 14.4933 7.78667 14.88 6.8 15.36C5.84 15.8133 5.16 16.3333 4.76 16.92C4.09333 17.88 3.54667 18.7333 3.12 19.48C2.69333 20.2 2.32 20.88 2 21.52C1.68 22.16 1.32 22.84 0.92 23.56C0.786667 23.9333 0.56 24.12 0.24 24.12C0.08 24.12 0 24.0133 0 23.8C0 23.6667 0.0133333 23.56 0.04 23.48C0.2 22.8667 0.573333 22.0133 1.16 20.92C1.77333 19.8267 2.52 18.6 3.4 17.24C4.28 15.88 5.2 14.52 6.16 13.16C7.14667 11.8 8.08 10.5467 8.96 9.4C9.84 8.25333 10.5867 7.33333 11.2 6.64C11.8133 5.92 12.2 5.56 12.36 5.56C12.52 5.56 12.6533 5.64 12.76 5.8C12.8667 5.96 12.9067 6.10667 12.88 6.24C12.88 6.24 12.7067 6.45333 12.36 6.88C12.0133 7.30667 11.5733 7.85333 11.04 8.52C10.5333 9.18667 9.98667 9.88 9.4 10.6C8.84 11.32 8.33333 11.9733 7.88 12.56C7.42667 13.12 7.09333 13.5333 6.88 13.8C9.25333 13.4 11.6267 12.92 14 12.36C16.4 11.8 18.68 10.96 20.84 9.84C22.1733 9.14667 23.2133 8.4 23.96 7.6C24.7333 6.77333 25.12 6.02667 25.12 5.36C25.12 4.66667 24.68 4.09333 23.8 3.64C22.92 3.16 21.4933 2.92 19.52 2.92C18.72 2.92 17.7333 3.01333 16.56 3.2C15.3867 3.38667 14.12 3.64 12.76 3.96C11.4267 4.28 10.0933 4.66667 8.76 5.12C7.45333 5.54667 6.25333 6.01333 5.16 6.52C4.09333 7.02667 3.24 7.54667 2.6 8.08C2.14667 8.42667 2 8.73333 2.16 9C2.21333 9.08 2.24 9.16 2.24 9.24C2.24 9.29333 2.2 9.32 2.12 9.32C2.04 9.29333 1.96 9.25333 1.88 9.2C1.45333 8.93333 1.13333 8.58667 0.92 8.16C0.706667 7.73333 0.6 7.34667 0.6 7C0.6 6.86667 0.613333 6.74667 0.64 6.64C0.693333 6.53333 0.733333 6.44 0.76 6.36C1.26667 5.61333 2.08 4.92 3.2 4.28C4.32 3.64 5.58667 3.06667 7 2.56C8.44 2.02667 9.90667 1.57333 11.4 1.2C12.8933 0.799999 14.28 0.506666 15.56 0.319998C16.84 0.106666 17.88 0 18.68 0C21.48 0 23.6267 0.386666 25.12 1.16C26.64 1.90667 27.4 2.86667 27.4 4.04C27.4 5 26.88 6.04 25.84 7.16C24.8 8.28 23.1867 9.38667 21 10.48C19.9333 11.04 18.7867 11.52 17.56 11.92C16.3333 12.32 15.1067 12.6667 13.88 12.96C14.3867 12.9067 14.8667 12.8667 15.32 12.84C15.8 12.8133 16.2533 12.8 16.68 12.8C19.64 12.8 21.7867 13.2933 23.12 14.28C24.4533 15.24 25.12 16.4267 25.12 17.84C25.12 18.8533 24.8 19.9333 24.16 21.08C23.52 22.2 22.6133 23.2933 21.44 24.36C20.2933 25.4 18.9067 26.32 17.28 27.12C16.1333 27.68 14.9733 28.0933 13.8 28.36C12.6267 28.6267 11.5467 28.8 10.56 28.88C9.57333 28.9867 8.76 29.04 8.12 29.04Z" fill="#0099A3"/>
</svg>
